<svg fill="none" height="165" viewBox="0 0 920 165" width="920" xmlns="http://www.w3.org/2000/svg" xmlns:xlink="http://www.w3.org/1999/xlink"><filter id="a" color-interpolation-filters="sRGB" filterUnits="userSpaceOnUse" height="54.1667" width="847.915" x="35.001" y="30"><feFlood flood-opacity="0" result="BackgroundImageFix"/><feColorMatrix in="SourceAlpha" result="hardAlpha" type="matrix" values="0 0 0 0 0 0 0 0 0 0 0 0 0 0 0 0 0 0 127 0"/><feOffset dx="4.16666" dy="4.16666"/><feComposite in2="hardAlpha" operator="out"/><feColorMatrix type="matrix" values="0 0 0 0 0.420833 0 0 0 0 0.297532 0 0 0 0 0 0 0 0 0.8 0"/><feBlend in2="BackgroundImageFix" mode="normal" result="effect1_dropShadow_100_13019"/><feBlend in="SourceGraphic" in2="effect1_dropShadow_100_13019" mode="normal" result="shape"/><feColorMatrix in="SourceAlpha" result="hardAlpha" type="matrix" values="0 0 0 0 0 0 0 0 0 0 0 0 0 0 0 0 0 0 127 0"/><feOffset dy="3.33333"/><feGaussianBlur stdDeviation="1.66666"/><feComposite in2="hardAlpha" k2="-1" k3="1" operator="arithmetic"/><feColorMatrix type="matrix" values="0 0 0 0 1 0 0 0 0 1 0 0 0 0 1 0 0 0 0.25 0"/><feBlend in2="shape" mode="normal" result="effect2_innerShadow_100_13019"/></filter><filter id="b" color-interpolation-filters="sRGB" filterUnits="userSpaceOnUse" height="33.3333" width="594.165" x="163.751" y="105.001"><feFlood flood-opacity="0" result="BackgroundImageFix"/><feColorMatrix in="SourceAlpha" result="hardAlpha" type="matrix" values="0 0 0 0 0 0 0 0 0 0 0 0 0 0 0 0 0 0 127 0"/><feOffset dx="1.66666" dy="1.66666"/><feComposite in2="hardAlpha" operator="out"/><feColorMatrix type="matrix" values="0 0 0 0 0.475 0 0 0 0 0.115705 0 0 0 0 0 0 0 0 1 0"/><feBlend in2="BackgroundImageFix" mode="normal" result="effect1_dropShadow_100_13019"/><feBlend in="SourceGraphic" in2="effect1_dropShadow_100_13019" mode="normal" result="shape"/><feColorMatrix in="SourceAlpha" result="hardAlpha" type="matrix" values="0 0 0 0 0 0 0 0 0 0 0 0 0 0 0 0 0 0 127 0"/><feOffset dy="3.33333"/><feGaussianBlur stdDeviation="1.66666"/><feComposite in2="hardAlpha" k2="-1" k3="1" operator="arithmetic"/><feColorMatrix type="matrix" values="0 0 0 0 1 0 0 0 0 1 0 0 0 0 1 0 0 0 0.25 0"/><feBlend in2="shape" mode="normal" result="effect2_innerShadow_100_13019"/></filter><linearGradient id="c" gradientUnits="userSpaceOnUse" x1="460" x2="460" y1="30" y2="80"><stop offset="0" stop-color="#f6c962"/><stop offset=".729167" stop-color="#fff"/></linearGradient><path d="m5 5.00391h909.998v25.8333h-909.998z" fill="#d59500"/><path d="m5 30.8389h909.998v25.8333h-909.998z" fill="#eda806"/><path d="m5 56.6699h909.998v26.3301h-909.998z" fill="#feba1a"/><path d="m5 83h910v17l-10 10h-889.5l-10.5-10z" fill="#eda806"/><path d="m118.333 108.337h683.332v25.8333h-683.332z" fill="#ffd980"/><path d="m123.333 134.171h673.332v25.8333h-673.332z" fill="#eda806"/><g filter="url(#a)"><path d="m35.0008 73.75v-43.7499h12.5v18.75h18.7499v-18.75h12.5v43.7499h-12.5v-18.75h-18.7499v18.75zm56.2499 0v-6.25h-6.25v-18.7499h6.25v-6.25h31.2503v6.25h6.25v12.4999h-31.2503v6.25h25.0003v6.25zm6.25-18.75h18.7503v-6.2499h-18.7503zm56.2503-6.2499h6.25v6.2499h-6.25v18.75h-12.5v-31.2499h12.5zm25-6.25v6.25h-18.75v-6.25zm12.5 31.2499v-6.25h-6.25v-18.7499h6.25v-6.25h31.249v6.25h6.25v18.7499h-6.25v6.25zm6.249-6.25h18.75v-18.7499h-18.75zm43.75 6.25v-6.25h-6.25v-18.7499h6.25v-6.25h31.25v6.25h6.25v12.4999h-31.25v6.25h25v6.25zm6.25-18.75h18.75v-6.2499h-18.75zm37.5 18.75v-6.25h31.25v-6.25h-25v-6.25h-6.25v-6.2499h6.25v-6.25h31.25v6.25h-25v6.2499h25v6.25h6.25v6.25h-6.25v6.25zm106.25 0v-6.25h-6.25v-18.7499h6.25v-6.25h31.25v6.25h6.25v18.7499h-6.25v6.25zm6.25-6.25h18.75v-18.7499h-18.75zm56.25 6.25v-24.9999h-12.5v-6.25h12.5v-6.25h6.25v-6.25h18.75v6.25h-12.5v6.25h12.5v6.25h-12.5v24.9999zm87.5 0v-6.25h-6.25v-37.4999h12.5v24.9999h6.25v-24.9999h6.25v24.9999h6.25v-24.9999h12.5v37.4999h-6.25v6.25h-6.25v-6.25h-6.25v-6.25h-6.25v6.25h-6.25v6.25zm50 0v-6.25h-6.25v-6.25h6.25v-6.25h25v-6.2499h-25v-6.25h31.25v6.25h6.25v24.9999zm6.25-6.25h18.75v-6.25h-18.75zm43.75 6.25v-6.25h12.5v-31.2499h-6.25v-6.25h18.75v37.4999h12.5v6.25zm50 0v-6.25h12.5v-31.2499h-6.25v-6.25h18.75v37.4999h12.499v6.25zm50 0v-6.25h-6.25v-6.25h6.25v-6.25h24.999v-6.2499h-24.999v-6.25h31.249v6.25h6.25v24.9999zm6.249-6.25h18.75v-6.25h-18.75zm43.75 6.25v-6.25h-6.25v-37.4999h12.5v12.5h25v6.25h6.25v18.7499h-6.25v6.25zm6.25-6.25h18.75v-18.7499h-18.75zm43.75 12.5v-6.25h25v-6.25h-25v-6.25h-6.25v-18.7499h12.5v18.7499h18.75v-18.7499h12.5v31.2499h-6.25v6.25z" fill="url(#c)"/><path d="m35.0008 73.75h-1.6667v1.6667h1.6667zm0-43.7499v-1.6667h-1.6667v1.6667zm12.5 0h1.6666v-1.6667h-1.6666zm0 18.75h-1.6667v1.6666h1.6667zm18.7499 0v1.6666h1.6667v-1.6666zm0-18.75v-1.6667h-1.6666v1.6667zm12.5 0h1.6667v-1.6667h-1.6667zm0 43.7499v1.6667h1.6667v-1.6667zm-12.5 0h-1.6666v1.6667h1.6666zm0-18.75h1.6667v-1.6666h-1.6667zm-18.7499 0v-1.6666h-1.6667v1.6666zm0 18.75v1.6667h1.6666v-1.6667zm-10.8333 0v-43.7499h-3.3334v43.7499zm-1.6667-42.0832h12.5v-3.3334h-12.5zm10.8333-1.6667v18.75h3.3333v-18.75zm1.6667 20.4166h18.7499v-3.3333h-18.7499zm20.4166-1.6666v-18.75h-3.3333v18.75zm-1.6667-17.0833h12.5v-3.3334h-12.5zm10.8334-1.6667v43.7499h3.3333v-43.7499zm1.6666 42.0832h-12.5v3.3334h12.5zm-10.8333 1.6667v-18.75h-3.3333v18.75zm-1.6667-20.4166h-18.7499v3.3333h18.7499zm-20.4166 1.6666v18.75h3.3333v-18.75zm1.6667 17.0833h-12.5v3.3334h12.5zm43.7499 1.6667h-1.6667v1.6667h1.6667zm0-6.25h1.6667v-1.6666h-1.6667zm-6.25 0h-1.6667v1.6667h1.6667zm0-18.7499v-1.6667h-1.6667v1.6667zm6.25 0v1.6666h1.6667v-1.6666zm0-6.25v-1.6667h-1.6667v1.6667zm31.2503 0h1.666v-1.6667h-1.666zm0 6.25h-1.667v1.6666h1.667zm6.25 0h1.666v-1.6667h-1.666zm0 12.4999v1.6667h1.666v-1.6667zm-31.2503 0v-1.6666h-1.6667v1.6666zm0 6.25h-1.6667v1.6667h1.6667zm25.0003 0h1.666v-1.6666h-1.666zm0 6.25v1.6667h1.666v-1.6667zm-25.0003-18.75h-1.6667v1.6667h1.6667zm18.7503 0v1.6667h1.666v-1.6667zm0-6.2499h1.666v-1.6667h-1.666zm-18.7503 0v-1.6667h-1.6667v1.6667zm-4.5833 24.9999v-6.25h-3.3334v6.25zm-1.6667-7.9166h-6.25v3.3333h6.25zm-4.5833 1.6666v-18.7499h-3.3334v18.7499zm-1.6667-17.0833h6.25v-3.3333h-6.25zm7.9167-1.6666v-6.25h-3.3334v6.25zm-1.6667-4.5834h31.2503v-3.3333h-31.2503zm29.5833-1.6666v6.25h3.333v-6.25zm1.667 7.9166h6.25v-3.3333h-6.25zm4.583-1.6666v12.4999h3.333v-12.4999zm1.667 10.8333h-31.2503v3.3333h31.2503zm-32.917 1.6666v6.25h3.3333v-6.25zm1.6667 7.9167h25.0003v-3.3333h-25.0003zm23.3333-1.6667v6.25h3.333v-6.25zm1.667 4.5833h-31.2503v3.3334h31.2503zm-25.0003-15.4166h18.7503v-3.3333h-18.7503zm20.4163-1.6667v-6.2499h-3.333v6.2499zm-1.666-7.9166h-18.7503v3.3333h18.7503zm-20.417 1.6667v6.2499h3.3333v-6.2499zm57.917 0h-1.667v1.6666h1.667zm6.25 0h1.666v-1.6667h-1.666zm0 6.2499v1.6667h1.666v-1.6667zm-6.25 0v-1.6666h-1.667v1.6666zm0 18.75v1.6667h1.666v-1.6667zm-12.5 0h-1.667v1.6667h1.667zm0-31.2499v-1.6667h-1.667v1.6667zm12.5 0h1.666v-1.6667h-1.666zm25 0h1.666v-1.6667h-1.666zm0 6.25v1.6666h1.666v-1.6666zm-18.75 0h-1.667v1.6666h1.667zm0-6.25v-1.6667h-1.667v1.6667zm-6.25 7.9166h6.25v-3.3333h-6.25zm4.583-1.6666v6.2499h3.333v-6.2499zm1.667 4.5833h-6.25v3.3333h6.25zm-7.917 1.6666v18.75h3.333v-18.75zm1.667 17.0833h-12.5v3.3334h12.5zm-10.834 1.6667v-31.2499h-3.333v31.2499zm-1.666-29.5833h12.5v-3.3333h-12.5zm10.833-1.6666v6.25h3.333v-6.25zm25 0v6.25h3.333v-6.25zm1.667 4.5833h-18.75v3.3333h18.75zm-17.084 1.6667v-6.25h-3.333v6.25zm-1.666-4.5834h18.75v-3.3333h-18.75zm31.25 29.5833h-1.667v1.6667h1.667zm0-6.25h1.666v-1.6666h-1.666zm-6.25 0h-1.667v1.6667h1.667zm0-18.7499v-1.6667h-1.667v1.6667zm6.25 0v1.6666h1.666v-1.6666zm0-6.25v-1.6667h-1.667v1.6667zm31.249 0h1.667v-1.6667h-1.667zm0 6.25h-1.666v1.6666h1.666zm6.25 0h1.667v-1.6667h-1.667zm0 18.7499v1.6667h1.667v-1.6667zm-6.25 0v-1.6666h-1.666v1.6666zm0 6.25v1.6667h1.667v-1.6667zm-25-6.25h-1.666v1.6667h1.666zm18.75 0v1.6667h1.667v-1.6667zm0-18.7499h1.667v-1.6667h-1.667zm-18.75 0v-1.6667h-1.666v1.6667zm-4.583 24.9999v-6.25h-3.333v6.25zm-1.666-7.9166h-6.25v3.3333h6.25zm-4.584 1.6666v-18.7499h-3.333v18.7499zm-1.666-17.0833h6.25v-3.3333h-6.25zm7.916-1.6666v-6.25h-3.333v6.25zm-1.666-4.5834h31.249v-3.3333h-31.249zm29.583-1.6666v6.25h3.333v-6.25zm1.666 7.9166h6.25v-3.3333h-6.25zm4.584-1.6666v18.7499h3.333v-18.7499zm1.666 17.0833h-6.25v3.3333h6.25zm-7.916 1.6666v6.25h3.333v-6.25zm1.666 4.5833h-31.249v3.3334h31.249zm-25-2.9166h18.75v-3.3333h-18.75zm20.417-1.6667v-18.7499h-3.333v18.7499zm-1.667-20.4166h-18.75v3.3333h18.75zm-20.416 1.6667v18.7499h3.333v-18.7499zm45.416 24.9999h-1.666v1.6667h1.666zm0-6.25h1.667v-1.6666h-1.667zm-6.25 0h-1.666v1.6667h1.666zm0-18.7499v-1.6667h-1.666v1.6667zm6.25 0v1.6666h1.667v-1.6666zm0-6.25v-1.6667h-1.666v1.6667zm31.25 0h1.667v-1.6667h-1.667zm0 6.25h-1.666v1.6666h1.666zm6.25 0h1.667v-1.6667h-1.667zm0 12.4999v1.6667h1.667v-1.6667zm-31.25 0v-1.6666h-1.666v1.6666zm0 6.25h-1.666v1.6667h1.666zm25 0h1.667v-1.6666h-1.667zm0 6.25v1.6667h1.667v-1.6667zm-25-18.75h-1.666v1.6667h1.666zm18.75 0v1.6667h1.667v-1.6667zm0-6.2499h1.667v-1.6667h-1.667zm-18.75 0v-1.6667h-1.666v1.6667zm-4.583 24.9999v-6.25h-3.333v6.25zm-1.667-7.9166h-6.25v3.3333h6.25zm-4.583 1.6666v-18.7499h-3.333v18.7499zm-1.667-17.0833h6.25v-3.3333h-6.25zm7.917-1.6666v-6.25h-3.333v6.25zm-1.667-4.5834h31.25v-3.3333h-31.25zm29.584-1.6666v6.25h3.333v-6.25zm1.666 7.9166h6.25v-3.3333h-6.25zm4.584-1.6666v12.4999h3.333v-12.4999zm1.666 10.8333h-31.25v3.3333h31.25zm-32.916 1.6666v6.25h3.333v-6.25zm1.666 7.9167h25v-3.3333h-25zm23.334-1.6667v6.25h3.333v-6.25zm1.666 4.5833h-31.25v3.3334h31.25zm-25-15.4166h18.75v-3.3333h-18.75zm20.417-1.6667v-6.2499h-3.333v6.2499zm-1.667-7.9166h-18.75v3.3333h18.75zm-20.416 1.6667v6.2499h3.333v-6.2499zm39.166 24.9999h-1.666v1.6667h1.666zm0-6.25v-1.6666h-1.666v1.6666zm31.25 0v1.6667h1.667v-1.6667zm0-6.25h1.667v-1.6666h-1.667zm-25 0h-1.666v1.6667h1.666zm0-6.25h1.667v-1.6666h-1.667zm-6.25 0h-1.666v1.6667h1.666zm0-6.2499v-1.6667h-1.666v1.6667zm6.25 0v1.6666h1.667v-1.6666zm0-6.25v-1.6667h-1.666v1.6667zm31.25 0h1.667v-1.6667h-1.667zm0 6.25v1.6666h1.667v-1.6666zm-25 0v-1.6667h-1.666v1.6667zm0 6.2499h-1.666v1.6667h1.666zm25 0h1.667v-1.6666h-1.667zm0 6.25h-1.666v1.6667h1.666zm6.25 0h1.667v-1.6666h-1.667zm0 6.25v1.6667h1.667v-1.6667zm-6.25 0v-1.6666h-1.666v1.6666zm0 6.25v1.6667h1.667v-1.6667zm-35.833 0v-6.25h-3.333v6.25zm-1.667-4.5833h31.25v-3.3333h-31.25zm32.917-1.6667v-6.25h-3.333v6.25zm-1.667-7.9166h-25v3.3333h25zm-23.333 1.6666v-6.25h-3.333v6.25zm-1.667-7.9166h-6.25v3.3333h6.25zm-4.583 1.6666v-6.2499h-3.333v6.2499zm-1.667-4.5833h6.25v-3.3333h-6.25zm7.917-1.6666v-6.25h-3.333v6.25zm-1.667-4.5834h31.25v-3.3333h-31.25zm29.584-1.6666v6.25h3.333v-6.25zm1.666 4.5833h-25v3.3333h25zm-26.666 1.6667v6.2499h3.333v-6.2499zm1.666 7.9166h25v-3.3333h-25zm23.334-1.6667v6.25h3.333v-6.25zm1.666 7.9167h6.25v-3.3333h-6.25zm4.584-1.6667v6.25h3.333v-6.25zm1.666 4.5834h-6.25v3.3333h6.25zm-7.916 1.6666v6.25h3.333v-6.25zm1.666 4.5833h-37.5v3.3334h37.5zm68.75 1.6667h-1.667v1.6667h1.667zm0-6.25h1.667v-1.6666h-1.667zm-6.25 0h-1.667v1.6667h1.667zm0-18.7499v-1.6667h-1.667v1.6667zm6.25 0v1.6666h1.667v-1.6666zm0-6.25v-1.6667h-1.667v1.6667zm31.25 0h1.667v-1.6667h-1.667zm0 6.25h-1.667v1.6666h1.667zm6.25 0h1.667v-1.6667h-1.667zm0 18.7499v1.6667h1.667v-1.6667zm-6.25 0v-1.6666h-1.667v1.6666zm0 6.25v1.6667h1.667v-1.6667zm-25-6.25h-1.667v1.6667h1.667zm18.75 0v1.6667h1.667v-1.6667zm0-18.7499h1.667v-1.6667h-1.667zm-18.75 0v-1.6667h-1.667v1.6667zm-4.583 24.9999v-6.25h-3.334v6.25zm-1.667-7.9166h-6.25v3.3333h6.25zm-4.583 1.6666v-18.7499h-3.334v18.7499zm-1.667-17.0833h6.25v-3.3333h-6.25zm7.917-1.6666v-6.25h-3.334v6.25zm-1.667-4.5834h31.25v-3.3333h-31.25zm29.583-1.6666v6.25h3.334v-6.25zm1.667 7.9166h6.25v-3.3333h-6.25zm4.583-1.6666v18.7499h3.334v-18.7499zm1.667 17.0833h-6.25v3.3333h6.25zm-7.917 1.6666v6.25h3.334v-6.25zm1.667 4.5833h-31.25v3.3334h31.25zm-25-2.9166h18.75v-3.3333h-18.75zm20.417-1.6667v-18.7499h-3.334v18.7499zm-1.667-20.4166h-18.75v3.3333h18.75zm-20.417 1.6667v18.7499h3.334v-18.7499zm57.917 24.9999h-1.667v1.6667h1.667zm0-24.9999h1.667v-1.6667h-1.667zm-12.5 0h-1.667v1.6666h1.667zm0-6.25v-1.6667h-1.667v1.6667zm12.5 0v1.6666h1.667v-1.6666zm0-6.25v-1.6667h-1.667v1.6667zm6.25 0v1.6666h1.667v-1.6666zm0-6.25v-1.6667h-1.667v1.6667zm18.75 0h1.667v-1.6667h-1.667zm0 6.25v1.6666h1.667v-1.6666zm-12.5 0v-1.6667h-1.667v1.6667zm0 6.25h-1.667v1.6666h1.667zm12.5 0h1.667v-1.6667h-1.667zm0 6.25v1.6666h1.667v-1.6666zm-12.5 0v-1.6667h-1.667v1.6667zm0 24.9999v1.6667h1.667v-1.6667zm-10.833 0v-24.9999h-3.334v24.9999zm-1.667-26.6666h-12.5v3.3333h12.5zm-10.833 1.6667v-6.25h-3.334v6.25zm-1.667-4.5834h12.5v-3.3333h-12.5zm14.167-1.6666v-6.25h-3.334v6.25zm-1.667-4.5834h6.25v-3.3333h-6.25zm7.917-1.6666v-6.25h-3.334v6.25zm-1.667-4.5833h18.75v-3.3334h-18.75zm17.083-1.6667v6.25h3.334v-6.25zm1.667 4.5833h-12.5v3.3333h12.5zm-14.167 1.6667v6.25h3.334v-6.25zm1.667 7.9166h12.5v-3.3333h-12.5zm10.833-1.6666v6.25h3.334v-6.25zm1.667 4.5833h-12.5v3.3333h12.5zm-14.167 1.6667v24.9999h3.334v-24.9999zm1.667 23.3332h-12.5v3.3334h12.5zm75 1.6667h-1.667v1.6667h1.667zm0-6.25h1.667v-1.6666h-1.667zm-6.25 0h-1.667v1.6667h1.667zm0-37.4999v-1.6667h-1.667v1.6667zm12.5 0h1.667v-1.6667h-1.667zm0 24.9999h-1.667v1.6667h1.667zm6.25 0v1.6667h1.667v-1.6667zm0-24.9999v-1.6667h-1.667v1.6667zm6.25 0h1.666v-1.6667h-1.666zm0 24.9999h-1.667v1.6667h1.667zm6.25 0v1.6667h1.666v-1.6667zm0-24.9999v-1.6667h-1.667v1.6667zm12.5 0h1.666v-1.6667h-1.666zm0 37.4999v1.6667h1.666v-1.6667zm-6.25 0v-1.6666h-1.667v1.6666zm0 6.25v1.6667h1.666v-1.6667zm-6.25 0h-1.667v1.6667h1.667zm0-6.25h1.666v-1.6666h-1.666zm-6.25 0h-1.667v1.6667h1.667zm0-6.25h1.666v-1.6666h-1.666zm-6.25 0v-1.6666h-1.667v1.6666zm0 6.25v1.6667h1.667v-1.6667zm-6.25 0v-1.6666h-1.667v1.6666zm0 6.25v1.6667h1.667v-1.6667zm-4.583 0v-6.25h-3.334v6.25zm-1.667-7.9166h-6.25v3.3333h6.25zm-4.583 1.6666v-37.4999h-3.334v37.4999zm-1.667-35.8332h12.5v-3.3334h-12.5zm10.833-1.6667v24.9999h3.334v-24.9999zm1.667 26.6666h6.25v-3.3333h-6.25zm7.917-1.6667v-24.9999h-3.334v24.9999zm-1.667-23.3332h6.25v-3.3334h-6.25zm4.583-1.6667v24.9999h3.333v-24.9999zm1.667 26.6666h6.25v-3.3333h-6.25zm7.916-1.6667v-24.9999h-3.333v24.9999zm-1.666-23.3332h12.5v-3.3334h-12.5zm10.833-1.6667v37.4999h3.333v-37.4999zm1.667 35.8333h-6.25v3.3333h6.25zm-7.917 1.6666v6.25h3.333v-6.25zm1.667 4.5833h-6.25v3.3334h6.25zm-4.584 1.6667v-6.25h-3.333v6.25zm-1.666-7.9166h-6.25v3.3333h6.25zm-4.584 1.6666v-6.25h-3.333v6.25zm-1.666-7.9166h-6.25v3.3333h6.25zm-7.917 1.6666v6.25h3.334v-6.25zm1.667 4.5834h-6.25v3.3333h6.25zm-7.917 1.6666v6.25h3.334v-6.25zm1.667 4.5833h-6.25v3.3334h6.25zm43.75 1.6667h-1.667v1.6667h1.667zm0-6.25h1.666v-1.6666h-1.666zm-6.25 0h-1.667v1.6667h1.667zm0-6.25v-1.6666h-1.667v1.6666zm6.25 0v1.6667h1.666v-1.6667zm0-6.25v-1.6666h-1.667v1.6666zm25 0v1.6667h1.666v-1.6667zm0-6.2499h1.666v-1.6667h-1.666zm-25 0h-1.667v1.6666h1.667zm0-6.25v-1.6667h-1.667v1.6667zm31.25 0h1.666v-1.6667h-1.666zm0 6.25h-1.667v1.6666h1.667zm6.25 0h1.666v-1.6667h-1.666zm0 24.9999v1.6667h1.666v-1.6667zm-31.25-6.25h-1.667v1.6667h1.667zm18.75 0v1.6667h1.666v-1.6667zm0-6.25h1.666v-1.6666h-1.666zm-18.75 0v-1.6666h-1.667v1.6666zm-4.584 12.5v-6.25h-3.333v6.25zm-1.666-7.9166h-6.25v3.3333h6.25zm-4.584 1.6666v-6.25h-3.333v6.25zm-1.666-4.5833h6.25v-3.3333h-6.25zm7.916-1.6667v-6.25h-3.333v6.25zm-1.666-4.5833h25v-3.3333h-25zm26.666-1.6667v-6.2499h-3.333v6.2499zm-1.666-7.9166h-25v3.3333h25zm-23.334 1.6667v-6.25h-3.333v6.25zm-1.666-4.5834h31.25v-3.3333h-31.25zm29.583-1.6666v6.25h3.333v-6.25zm1.667 7.9166h6.25v-3.3333h-6.25zm4.583-1.6666v24.9999h3.333v-24.9999zm1.667 23.3332h-37.5v3.3334h37.5zm-31.25-2.9166h18.75v-3.3333h-18.75zm20.416-1.6667v-6.25h-3.333v6.25zm-1.666-7.9166h-18.75v3.3333h18.75zm-20.417 1.6666v6.25h3.333v-6.25zm45.417 12.5h-1.667v1.6667h1.667zm0-6.25v-1.6666h-1.667v1.6666zm12.5 0v1.6667h1.666v-1.6667zm0-31.2499h1.666v-1.6667h-1.666zm-6.25 0h-1.667v1.6666h1.667zm0-6.25v-1.6667h-1.667v1.6667zm18.75 0h1.666v-1.6667h-1.666zm0 37.4999h-1.667v1.6667h1.667zm12.5 0h1.666v-1.6666h-1.666zm0 6.25v1.6667h1.666v-1.6667zm-35.834 0v-6.25h-3.333v6.25zm-1.666-4.5833h12.5v-3.3333h-12.5zm14.166-1.6667v-31.2499h-3.333v31.2499zm-1.666-32.9166h-6.25v3.3333h6.25zm-4.584 1.6667v-6.25h-3.333v6.25zm-1.666-4.5833h18.75v-3.3334h-18.75zm17.083-1.6667v37.4999h3.333v-37.4999zm1.667 39.1666h12.5v-3.3333h-12.5zm10.833-1.6667v6.25h3.333v-6.25zm1.667 4.5833h-37.5v3.3334h37.5zm12.5 1.6667h-1.667v1.6667h1.667zm0-6.25v-1.6666h-1.667v1.6666zm12.5 0v1.6667h1.666v-1.6667zm0-31.2499h1.666v-1.6667h-1.666zm-6.25 0h-1.667v1.6666h1.667zm0-6.25v-1.6667h-1.667v1.6667zm18.75 0h1.666v-1.6667h-1.666zm0 37.4999h-1.667v1.6667h1.667zm12.499 0h1.667v-1.6666h-1.667zm0 6.25v1.6667h1.667v-1.6667zm-35.833 0v-6.25h-3.333v6.25zm-1.666-4.5833h12.5v-3.3333h-12.5zm14.166-1.6667v-31.2499h-3.333v31.2499zm-1.666-32.9166h-6.25v3.3333h6.25zm-4.584 1.6667v-6.25h-3.333v6.25zm-1.666-4.5833h18.75v-3.3334h-18.75zm17.083-1.6667v37.4999h3.333v-37.4999zm1.667 39.1666h12.499v-3.3333h-12.499zm10.833-1.6667v6.25h3.333v-6.25zm1.666 4.5833h-37.499v3.3334h37.499zm12.501 1.6667h-1.667v1.6667h1.667zm0-6.25h1.666v-1.6666h-1.666zm-6.25 0h-1.667v1.6667h1.667zm0-6.25v-1.6666h-1.667v1.6666zm6.25 0v1.6667h1.666v-1.6667zm0-6.25v-1.6666h-1.667v1.6666zm24.999 0v1.6667h1.667v-1.6667zm0-6.2499h1.667v-1.6667h-1.667zm-24.999 0h-1.667v1.6666h1.667zm0-6.25v-1.6667h-1.667v1.6667zm31.249 0h1.667v-1.6667h-1.667zm0 6.25h-1.666v1.6666h1.666zm6.25 0h1.667v-1.6667h-1.667zm0 24.9999v1.6667h1.667v-1.6667zm-31.25-6.25h-1.666v1.6667h1.666zm18.75 0v1.6667h1.667v-1.6667zm0-6.25h1.667v-1.6666h-1.667zm-18.75 0v-1.6666h-1.666v1.6666zm-4.583 12.5v-6.25h-3.333v6.25zm-1.666-7.9166h-6.25v3.3333h6.25zm-4.584 1.6666v-6.25h-3.333v6.25zm-1.666-4.5833h6.25v-3.3333h-6.25zm7.916-1.6667v-6.25h-3.333v6.25zm-1.666-4.5833h24.999v-3.3333h-24.999zm26.666-1.6667v-6.2499h-3.333v6.2499zm-1.667-7.9166h-24.999v3.3333h24.999zm-23.333 1.6667v-6.25h-3.333v6.25zm-1.666-4.5834h31.249v-3.3333h-31.249zm29.583-1.6666v6.25h3.333v-6.25zm1.666 7.9166h6.25v-3.3333h-6.25zm4.584-1.6666v24.9999h3.333v-24.9999zm1.666 23.3332h-37.499v3.3334h37.499zm-31.25-2.9166h18.75v-3.3333h-18.75zm20.417-1.6667v-6.25h-3.333v6.25zm-1.667-7.9166h-18.75v3.3333h18.75zm-20.416 1.6666v6.25h3.333v-6.25zm45.416 12.5h-1.666v1.6667h1.666zm0-6.25h1.667v-1.6666h-1.667zm-6.25 0h-1.666v1.6667h1.666zm0-37.4999v-1.6667h-1.666v1.6667zm12.5 0h1.667v-1.6667h-1.667zm0 12.5h-1.666v1.6666h1.666zm25 0h1.667v-1.6667h-1.667zm0 6.25h-1.666v1.6666h1.666zm6.25 0h1.667v-1.6667h-1.667zm0 18.7499v1.6667h1.667v-1.6667zm-6.25 0v-1.6666h-1.666v1.6666zm0 6.25v1.6667h1.667v-1.6667zm-25-6.25h-1.666v1.6667h1.666zm18.75 0v1.6667h1.667v-1.6667zm0-18.7499h1.667v-1.6667h-1.667zm-18.75 0v-1.6667h-1.666v1.6667zm-4.583 24.9999v-6.25h-3.333v6.25zm-1.667-7.9166h-6.25v3.3333h6.25zm-4.583 1.6666v-37.4999h-3.333v37.4999zm-1.667-35.8332h12.5v-3.3334h-12.5zm10.834-1.6667v12.5h3.333v-12.5zm1.666 14.1666h25v-3.3333h-25zm23.334-1.6666v6.25h3.333v-6.25zm1.666 7.9166h6.25v-3.3333h-6.25zm4.584-1.6666v18.7499h3.333v-18.7499zm1.666 17.0833h-6.25v3.3333h6.25zm-7.916 1.6666v6.25h3.333v-6.25zm1.666 4.5833h-31.25v3.3334h31.25zm-25-2.9166h18.75v-3.3333h-18.75zm20.417-1.6667v-18.7499h-3.333v18.7499zm-1.667-20.4166h-18.75v3.3333h18.75zm-20.416 1.6667v18.7499h3.333v-18.7499zm45.416 31.2499h-1.666v1.6667h1.666zm0-6.25v-1.6667h-1.666v1.6667zm25 0v1.6667h1.667v-1.6667zm0-6.25h1.667v-1.6666h-1.667zm-25 0h-1.666v1.6667h1.666zm0-6.25h1.667v-1.6666h-1.667zm-6.25 0h-1.666v1.6667h1.666zm0-18.7499v-1.6667h-1.666v1.6667zm12.5 0h1.667v-1.6667h-1.667zm0 18.7499h-1.666v1.6667h1.666zm18.75 0v1.6667h1.667v-1.6667zm0-18.7499v-1.6667h-1.666v1.6667zm12.5 0h1.667v-1.6667h-1.667zm0 31.2499v1.6667h1.667v-1.6667zm-6.25 0v-1.6667h-1.666v1.6667zm0 6.25v1.6667h1.667v-1.6667zm-29.583 0v-6.25h-3.333v6.25zm-1.667-4.5833h25v-3.3334h-25zm26.667-1.6667v-6.25h-3.333v6.25zm-1.667-7.9166h-25v3.3333h25zm-23.333 1.6666v-6.25h-3.333v6.25zm-1.667-7.9166h-6.25v3.3333h6.25zm-4.583 1.6666v-18.7499h-3.333v18.7499zm-1.667-17.0833h12.5v-3.3333h-12.5zm10.834-1.6666v18.7499h3.333v-18.7499zm1.666 20.4166h18.75v-3.3333h-18.75zm20.417-1.6667v-18.7499h-3.333v18.7499zm-1.667-17.0833h12.5v-3.3333h-12.5zm10.834-1.6666v31.2499h3.333v-31.2499zm1.666 29.5832h-6.25v3.3334h6.25zm-7.916 1.6667v6.25h3.333v-6.25zm1.666 4.5833h-31.25v3.3334h31.25z" fill="#9e7001"/></g><g filter="url(#b)"><path d="m171.251 131.251v-22.5h-7.5v-3.75h22.5v3.75h-7.5v22.5zm18.75 0v-26.25h7.5v7.5h14.999v3.75h3.75v15h-7.5v-15h-11.249v15zm33.749 0v-3.75h-3.75v-11.25h3.75v-3.75h18.75v3.75h3.75v7.5h-18.75v3.75h15v3.75zm3.75-11.25h11.25v-3.75h-11.25zm52.5 11.25v-26.25h18.75v3.75h3.75v3.75h3.75v11.25h-3.75v3.75h-3.75v3.75zm7.5-3.75h7.5v-3.75h3.75v-11.25h-3.75v-3.75h-7.5zm26.25 3.75v-3.75h-3.75v-15h7.5v15h11.25v-15h7.5v18.75zm26.25 0v-18.75h22.5v3.75h3.75v15h-7.5v-15h-11.25v15zm33.75 3.75v-3.75h15v-3.75h-15v-3.75h-3.75v-7.5h3.75v-3.75h22.5v18.75h-3.75v3.75zm3.75-11.25h11.25v-7.5h-11.25zm26.25 7.5v-3.75h-3.75v-11.25h3.75v-3.75h18.75v3.75h3.75v7.5h-18.75v3.75h15v3.75zm3.75-11.25h11.25v-3.75h-11.25zm26.25 11.25v-3.75h-3.75v-11.25h3.75v-3.75h18.75v3.75h3.75v11.25h-3.75v3.75zm3.75-3.75h11.25v-11.25h-11.25zm22.5 3.75v-18.75h22.5v3.75h3.75v15h-7.5v-15h-11.25v15zm63.75 0v-3.75h-3.75v-11.25h3.75v-3.75h18.75v3.75h3.75v11.25h-3.75v3.75zm3.75-3.75h11.25v-11.25h-11.25zm33.75 3.75v-15h-7.5v-3.75h7.5v-3.75h3.75v-3.75h11.25v3.75h-7.5v3.75h7.5v3.75h-7.5v15zm52.5 0v-3.75h-3.75v-3.75h7.5v3.75h11.25v-7.5h-15v-3.75h-3.75v-7.5h3.75v-3.75h18.75v3.75h3.75v3.75h-7.5v-3.75h-11.25v7.5h15v3.75h3.75v7.5h-3.75v3.75zm30 0v-3.75h-3.75v-11.25h3.75v-3.75h18.75v3.75h3.75v11.25h-3.75v3.75zm3.75-3.75h11.25v-11.25h-11.25zm26.25 3.75v-3.75h-3.75v-15h7.5v15h11.25v-15h7.5v18.75zm30 0v-3.75h7.499v-18.75h-3.75v-3.75h11.25v22.5h7.5v3.75zm26.25 0v-3.75h18.749v-3.75h-14.999v-3.75h-3.75v-3.75h3.75v-3.75h18.749v3.75h-15v3.75h15v3.75h3.75v3.75h-3.75v3.75z" fill="#ff3d00"/><path d="m171.251 131.251h-1.667v1.667h1.667zm0-22.5h1.666v-1.667h-1.666zm-7.5 0h-1.667v1.667h1.667zm0-3.75v-1.667h-1.667v1.667zm22.5 0h1.666v-1.667h-1.666zm0 3.75v1.667h1.666v-1.667zm-7.5 0v-1.667h-1.667v1.667zm0 22.5v1.667h1.666v-1.667zm-5.834 0v-22.5h-3.333v22.5zm-1.666-24.167h-7.5v3.334h7.5zm-5.834 1.667v-3.75h-3.333v3.75zm-1.666-2.083h22.5v-3.334h-22.5zm20.833-1.667v3.75h3.333v-3.75zm1.667 2.083h-7.5v3.334h7.5zm-9.167 1.667v22.5h3.333v-22.5zm1.667 20.833h-7.5v3.334h7.5zm11.25 1.667h-1.667v1.667h1.667zm0-26.25v-1.667h-1.667v1.667zm7.5 0h1.666v-1.667h-1.666zm0 7.5h-1.667v1.667h1.667zm14.999 0h1.667v-1.667h-1.667zm0 3.75h-1.666v1.667h1.666zm3.75 0h1.667v-1.667h-1.667zm0 15v1.667h1.667v-1.667zm-7.5 0h-1.666v1.667h1.666zm0-15h1.667v-1.667h-1.667zm-11.249 0v-1.667h-1.667v1.667zm0 15v1.667h1.666v-1.667zm-5.834 0v-26.25h-3.333v26.25zm-1.666-24.583h7.5v-3.334h-7.5zm5.833-1.667v7.5h3.333v-7.5zm1.667 9.167h14.999v-3.334h-14.999zm13.333-1.667v3.75h3.333v-3.75zm1.666 5.417h3.75v-3.334h-3.75zm2.084-1.667v15h3.333v-15zm1.666 13.333h-7.5v3.334h7.5zm-5.833 1.667v-15h-3.333v15zm-1.667-16.667h-11.249v3.334h11.249zm-12.916 1.667v15h3.333v-15zm1.667 13.333h-7.5v3.334h7.5zm26.249 1.667h-1.666v1.667h1.666zm0-3.75h1.667v-1.667h-1.667zm-3.75 0h-1.666v1.667h1.666zm0-11.25v-1.667h-1.666v1.667zm3.75 0v1.667h1.667v-1.667zm0-3.75v-1.667h-1.666v1.667zm18.75 0h1.667v-1.667h-1.667zm0 3.75h-1.666v1.667h1.666zm3.75 0h1.667v-1.667h-1.667zm0 7.5v1.667h1.667v-1.667zm-18.75 0v-1.667h-1.666v1.667zm0 3.75h-1.666v1.667h1.666zm15 0h1.667v-1.667h-1.667zm0 3.75v1.667h1.667v-1.667zm-15-11.25h-1.666v1.667h1.666zm11.25 0v1.667h1.667v-1.667zm0-3.75h1.667v-1.667h-1.667zm-11.25 0v-1.667h-1.666v1.667zm-2.083 15v-3.75h-3.333v3.75zm-1.667-5.417h-3.75v3.334h3.75zm-2.083 1.667v-11.25h-3.333v11.25zm-1.667-9.583h3.75v-3.334h-3.75zm5.417-1.667v-3.75h-3.333v3.75zm-1.667-2.083h18.75v-3.334h-18.75zm17.084-1.667v3.75h3.333v-3.75zm1.666 5.417h3.75v-3.334h-3.75zm2.084-1.667v7.5h3.333v-7.5zm1.666 5.833h-18.75v3.334h18.75zm-20.416 1.667v3.75h3.333v-3.75zm1.666 5.417h15v-3.334h-15zm13.334-1.667v3.75h3.333v-3.75zm1.666 2.083h-18.75v3.334h18.75zm-15-7.916h11.25v-3.334h-11.25zm12.917-1.667v-3.75h-3.333v3.75zm-1.667-5.417h-11.25v3.334h11.25zm-12.916 1.667v3.75h3.333v-3.75zm54.166 15h-1.666v1.667h1.666zm0-26.25v-1.667h-1.666v1.667zm18.75 0h1.667v-1.667h-1.667zm0 3.75h-1.666v1.667h1.666zm3.75 0h1.667v-1.667h-1.667zm0 3.75h-1.666v1.667h1.666zm3.75 0h1.667v-1.667h-1.667zm0 11.25v1.667h1.667v-1.667zm-3.75 0v-1.667h-1.666v1.667zm0 3.75v1.667h1.667v-1.667zm-3.75 0v-1.667h-1.666v1.667zm0 3.75v1.667h1.667v-1.667zm-11.25-3.75h-1.666v1.667h1.666zm7.5 0v1.667h1.667v-1.667zm0-3.75v-1.667h-1.666v1.667zm3.75 0v1.667h1.667v-1.667zm0-11.25h1.667v-1.667h-1.667zm-3.75 0h-1.666v1.667h1.666zm0-3.75h1.667v-1.667h-1.667zm-7.5 0v-1.667h-1.666v1.667zm-5.833 22.5v-26.25h-3.333v26.25zm-1.667-24.583h18.75v-3.334h-18.75zm17.084-1.667v3.75h3.333v-3.75zm1.666 5.417h3.75v-3.334h-3.75zm2.084-1.667v3.75h3.333v-3.75zm1.666 5.417h3.75v-3.334h-3.75zm2.084-1.667v11.25h3.333v-11.25zm1.666 9.583h-3.75v3.334h3.75zm-5.416 1.667v3.75h3.333v-3.75zm1.666 2.083h-3.75v3.334h3.75zm-5.416 1.667v3.75h3.333v-3.75zm1.666 2.083h-18.75v3.334h18.75zm-11.25-.416h7.5v-3.334h-7.5zm9.167-1.667v-3.75h-3.333v3.75zm-1.667-2.083h3.75v-3.334h-3.75zm5.417-1.667v-11.25h-3.333v11.25zm-1.667-12.917h-3.75v3.334h3.75zm-2.083 1.667v-3.75h-3.333v3.75zm-1.667-5.417h-7.5v3.334h7.5zm-9.166 1.667v18.75h3.333v-18.75zm27.916 22.5h-1.666v1.667h1.666zm0-3.75h1.667v-1.667h-1.667zm-3.75 0h-1.666v1.667h1.666zm0-15v-1.667h-1.666v1.667zm7.5 0h1.667v-1.667h-1.667zm0 15h-1.666v1.667h1.666zm11.25 0v1.667h1.667v-1.667zm0-15v-1.667h-1.666v1.667zm7.5 0h1.667v-1.667h-1.667zm0 18.75v1.667h1.667v-1.667zm-20.833 0v-3.75h-3.333v3.75zm-1.667-5.417h-3.75v3.334h3.75zm-2.083 1.667v-15h-3.333v15zm-1.667-13.333h7.5v-3.334h-7.5zm5.834-1.667v15h3.333v-15zm1.666 16.667h11.25v-3.334h-11.25zm12.917-1.667v-15h-3.333v15zm-1.667-13.333h7.5v-3.334h-7.5zm5.834-1.667v18.75h3.333v-18.75zm1.666 17.083h-22.5v3.334h22.5zm3.75 1.667h-1.666v1.667h1.666zm0-18.75v-1.667h-1.666v1.667zm22.5 0h1.667v-1.667h-1.667zm0 3.75h-1.666v1.667h1.666zm3.75 0h1.667v-1.667h-1.667zm0 15v1.667h1.667v-1.667zm-7.5 0h-1.666v1.667h1.666zm0-15h1.667v-1.667h-1.667zm-11.25 0v-1.667h-1.666v1.667zm0 15v1.667h1.667v-1.667zm-5.833 0v-18.75h-3.333v18.75zm-1.667-17.083h22.5v-3.334h-22.5zm20.834-1.667v3.75h3.333v-3.75zm1.666 5.417h3.75v-3.334h-3.75zm2.084-1.667v15h3.333v-15zm1.666 13.333h-7.5v3.334h7.5zm-5.833 1.667v-15h-3.333v15zm-1.667-16.667h-11.25v3.334h11.25zm-12.916 1.667v15h3.333v-15zm1.666 13.333h-7.5v3.334h7.5zm26.25 5.417h-1.666v1.667h1.666zm0-3.75v-1.667h-1.666v1.667zm15 0v1.667h1.667v-1.667zm0-3.75h1.667v-1.667h-1.667zm-15 0h-1.666v1.667h1.666zm0-3.75h1.667v-1.667h-1.667zm-3.75 0h-1.666v1.667h1.666zm0-7.5v-1.667h-1.666v1.667zm3.75 0v1.667h1.667v-1.667zm0-3.75v-1.667h-1.666v1.667zm22.5 0h1.667v-1.667h-1.667zm0 18.75v1.667h1.667v-1.667zm-3.75 0v-1.667h-1.667v1.667zm0 3.75v1.667h1.667v-1.667zm-15-11.25h-1.666v1.667h1.666zm11.25 0v1.667h1.667v-1.667zm0-7.5h1.667v-1.667h-1.667zm-11.25 0v-1.667h-1.666v1.667zm-2.083 18.75v-3.75h-3.333v3.75zm-1.667-2.083h15v-3.334h-15zm16.667-1.667v-3.75h-3.334v3.75zm-1.667-5.417h-15v3.334h15zm-13.333 1.667v-3.75h-3.333v3.75zm-1.667-5.417h-3.75v3.334h3.75zm-2.083 1.667v-7.5h-3.333v7.5zm-1.667-5.833h3.75v-3.334h-3.75zm5.417-1.667v-3.75h-3.333v3.75zm-1.667-2.083h22.5v-3.334h-22.5zm20.833-1.667v18.75h3.334v-18.75zm1.667 17.083h-3.75v3.334h3.75zm-5.417 1.667v3.75h3.334v-3.75zm1.667 2.083h-18.75v3.334h18.75zm-15-7.916h11.25v-3.334h-11.25zm12.917-1.667v-7.5h-3.334v7.5zm-1.667-9.167h-11.25v3.334h11.25zm-12.916 1.667v7.5h3.333v-7.5zm27.916 15h-1.667v1.667h1.667zm0-3.75h1.667v-1.667h-1.667zm-3.75 0h-1.667v1.667h1.667zm0-11.25v-1.667h-1.667v1.667zm3.75 0v1.667h1.667v-1.667zm0-3.75v-1.667h-1.667v1.667zm18.75 0h1.667v-1.667h-1.667zm0 3.75h-1.667v1.667h1.667zm3.75 0h1.667v-1.667h-1.667zm0 7.5v1.667h1.667v-1.667zm-18.75 0v-1.667h-1.667v1.667zm0 3.75h-1.667v1.667h1.667zm15 0h1.667v-1.667h-1.667zm0 3.75v1.667h1.667v-1.667zm-15-11.25h-1.667v1.667h1.667zm11.25 0v1.667h1.667v-1.667zm0-3.75h1.667v-1.667h-1.667zm-11.25 0v-1.667h-1.667v1.667zm-2.083 15v-3.75h-3.334v3.75zm-1.667-5.417h-3.75v3.334h3.75zm-2.083 1.667v-11.25h-3.334v11.25zm-1.667-9.583h3.75v-3.334h-3.75zm5.417-1.667v-3.75h-3.334v3.75zm-1.667-2.083h18.75v-3.334h-18.75zm17.083-1.667v3.75h3.334v-3.75zm1.667 5.417h3.75v-3.334h-3.75zm2.083-1.667v7.5h3.334v-7.5zm1.667 5.833h-18.75v3.334h18.75zm-20.417 1.667v3.75h3.334v-3.75zm1.667 5.417h15v-3.334h-15zm13.333-1.667v3.75h3.334v-3.75zm1.667 2.083h-18.75v3.334h18.75zm-15-7.916h11.25v-3.334h-11.25zm12.917-1.667v-3.75h-3.334v3.75zm-1.667-5.417h-11.25v3.334h11.25zm-12.917 1.667v3.75h3.334v-3.75zm27.917 15h-1.667v1.667h1.667zm0-3.75h1.667v-1.667h-1.667zm-3.75 0h-1.667v1.667h1.667zm0-11.25v-1.667h-1.667v1.667zm3.75 0v1.667h1.667v-1.667zm0-3.75v-1.667h-1.667v1.667zm18.75 0h1.667v-1.667h-1.667zm0 3.75h-1.667v1.667h1.667zm3.75 0h1.667v-1.667h-1.667zm0 11.25v1.667h1.667v-1.667zm-3.75 0v-1.667h-1.667v1.667zm0 3.75v1.667h1.667v-1.667zm-15-3.75h-1.667v1.667h1.667zm11.25 0v1.667h1.667v-1.667zm0-11.25h1.667v-1.667h-1.667zm-11.25 0v-1.667h-1.667v1.667zm-2.083 15v-3.75h-3.334v3.75zm-1.667-5.417h-3.75v3.334h3.75zm-2.083 1.667v-11.25h-3.334v11.25zm-1.667-9.583h3.75v-3.334h-3.75zm5.417-1.667v-3.75h-3.334v3.75zm-1.667-2.083h18.75v-3.334h-18.75zm17.083-1.667v3.75h3.334v-3.75zm1.667 5.417h3.75v-3.334h-3.75zm2.083-1.667v11.25h3.334v-11.25zm1.667 9.583h-3.75v3.334h3.75zm-5.417 1.667v3.75h3.334v-3.75zm1.667 2.083h-18.75v3.334h18.75zm-15-.416h11.25v-3.334h-11.25zm12.917-1.667v-11.25h-3.334v11.25zm-1.667-12.917h-11.25v3.334h11.25zm-12.917 1.667v11.25h3.334v-11.25zm24.167 15h-1.667v1.667h1.667zm0-18.75v-1.667h-1.667v1.667zm22.5 0h1.667v-1.667h-1.667zm0 3.75h-1.667v1.667h1.667zm3.75 0h1.667v-1.667h-1.667zm0 15v1.667h1.667v-1.667zm-7.5 0h-1.667v1.667h1.667zm0-15h1.667v-1.667h-1.667zm-11.25 0v-1.667h-1.667v1.667zm0 15v1.667h1.667v-1.667zm-5.833 0v-18.75h-3.334v18.75zm-1.667-17.083h22.5v-3.334h-22.5zm20.833-1.667v3.75h3.334v-3.75zm1.667 5.417h3.75v-3.334h-3.75zm2.083-1.667v15h3.334v-15zm1.667 13.333h-7.5v3.334h7.5zm-5.833 1.667v-15h-3.334v15zm-1.667-16.667h-11.25v3.334h11.25zm-12.917 1.667v15h3.334v-15zm1.667 13.333h-7.5v3.334h7.5zm56.25 1.667h-1.667v1.667h1.667zm0-3.75h1.667v-1.667h-1.667zm-3.75 0h-1.667v1.667h1.667zm0-11.25v-1.667h-1.667v1.667zm3.75 0v1.667h1.667v-1.667zm0-3.75v-1.667h-1.667v1.667zm18.75 0h1.667v-1.667h-1.667zm0 3.75h-1.667v1.667h1.667zm3.75 0h1.667v-1.667h-1.667zm0 11.25v1.667h1.667v-1.667zm-3.75 0v-1.667h-1.667v1.667zm0 3.75v1.667h1.667v-1.667zm-15-3.75h-1.667v1.667h1.667zm11.25 0v1.667h1.667v-1.667zm0-11.25h1.667v-1.667h-1.667zm-11.25 0v-1.667h-1.667v1.667zm-2.083 15v-3.75h-3.334v3.75zm-1.667-5.417h-3.75v3.334h3.75zm-2.083 1.667v-11.25h-3.334v11.25zm-1.667-9.583h3.75v-3.334h-3.75zm5.417-1.667v-3.75h-3.334v3.75zm-1.667-2.083h18.75v-3.334h-18.75zm17.083-1.667v3.75h3.334v-3.75zm1.667 5.417h3.75v-3.334h-3.75zm2.083-1.667v11.25h3.334v-11.25zm1.667 9.583h-3.75v3.334h3.75zm-5.417 1.667v3.75h3.334v-3.75zm1.667 2.083h-18.75v3.334h18.75zm-15-.416h11.25v-3.334h-11.25zm12.917-1.667v-11.25h-3.334v11.25zm-1.667-12.917h-11.25v3.334h11.25zm-12.917 1.667v11.25h3.334v-11.25zm35.417 15h-1.667v1.667h1.667zm0-15h1.666v-1.667h-1.666zm-7.5 0h-1.667v1.667h1.667zm0-3.75v-1.667h-1.667v1.667zm7.5 0v1.667h1.666v-1.667zm0-3.75v-1.667h-1.667v1.667zm3.75 0v1.667h1.666v-1.667zm0-3.75v-1.667h-1.667v1.667zm11.25 0h1.666v-1.667h-1.666zm0 3.75v1.667h1.666v-1.667zm-7.5 0v-1.667h-1.667v1.667zm0 3.75h-1.667v1.667h1.667zm7.5 0h1.666v-1.667h-1.666zm0 3.75v1.667h1.666v-1.667zm-7.5 0v-1.667h-1.667v1.667zm0 15v1.667h1.666v-1.667zm-5.834 0v-15h-3.333v15zm-1.666-16.667h-7.5v3.334h7.5zm-5.833 1.667v-3.75h-3.334v3.75zm-1.667-2.083h7.5v-3.334h-7.5zm9.166-1.667v-3.75h-3.333v3.75zm-1.666-2.083h3.75v-3.334h-3.75zm5.416-1.667v-3.75h-3.333v3.75zm-1.666-2.083h11.25v-3.334h-11.25zm9.583-1.667v3.75h3.333v-3.75zm1.667 2.083h-7.5v3.334h7.5zm-9.167 1.667v3.75h3.333v-3.75zm1.667 5.417h7.5v-3.334h-7.5zm5.833-1.667v3.75h3.333v-3.75zm1.667 2.083h-7.5v3.334h7.5zm-9.167 1.667v15h3.333v-15zm1.667 13.333h-7.5v3.334h7.5zm45 1.667h-1.667v1.667h1.667zm0-3.75h1.666v-1.667h-1.666zm-3.75 0h-1.667v1.667h1.667zm0-3.75v-1.667h-1.667v1.667zm7.5 0h1.666v-1.667h-1.666zm0 3.75h-1.667v1.667h1.667zm11.25 0v1.667h1.666v-1.667zm0-7.5h1.666v-1.667h-1.666zm-15 0h-1.667v1.667h1.667zm0-3.75h1.666v-1.667h-1.666zm-3.75 0h-1.667v1.667h1.667zm0-7.5v-1.667h-1.667v1.667zm3.75 0v1.667h1.666v-1.667zm0-3.75v-1.667h-1.667v1.667zm18.75 0h1.666v-1.667h-1.666zm0 3.75h-1.667v1.667h1.667zm3.75 0h1.666v-1.667h-1.666zm0 3.75v1.667h1.666v-1.667zm-7.5 0h-1.667v1.667h1.667zm0-3.75h1.666v-1.667h-1.666zm-11.25 0v-1.667h-1.667v1.667zm0 7.5h-1.667v1.667h1.667zm15 0h1.666v-1.667h-1.666zm0 3.75h-1.667v1.667h1.667zm3.75 0h1.666v-1.667h-1.666zm0 7.5v1.667h1.666v-1.667zm-3.75 0v-1.667h-1.667v1.667zm0 3.75v1.667h1.666v-1.667zm-17.084 0v-3.75h-3.333v3.75zm-1.666-5.417h-3.75v3.334h3.75zm-2.084 1.667v-3.75h-3.333v3.75zm-1.666-2.083h7.5v-3.334h-7.5zm5.833-1.667v3.75h3.333v-3.75zm1.667 5.417h11.25v-3.334h-11.25zm12.916-1.667v-7.5h-3.333v7.5zm-1.666-9.167h-15v3.334h15zm-13.334 1.667v-3.75h-3.333v3.75zm-1.666-5.417h-3.75v3.334h3.75zm-2.084 1.667v-7.5h-3.333v7.5zm-1.666-5.833h3.75v-3.334h-3.75zm5.416-1.667v-3.75h-3.333v3.75zm-1.666-2.083h18.75v-3.334h-18.75zm17.083-1.667v3.75h3.333v-3.75zm1.667 5.417h3.75v-3.334h-3.75zm2.083-1.667v3.75h3.333v-3.75zm1.667 2.083h-7.5v3.334h7.5zm-5.834 1.667v-3.75h-3.333v3.75zm-1.666-5.417h-11.25v3.334h11.25zm-12.917 1.667v7.5h3.333v-7.5zm1.667 9.167h15v-3.334h-15zm13.333-1.667v3.75h3.333v-3.75zm1.667 5.417h3.75v-3.334h-3.75zm2.083-1.667v7.5h3.333v-7.5zm1.667 5.833h-3.75v3.334h3.75zm-5.417 1.667v3.75h3.333v-3.75zm1.667 2.083h-18.75v3.334h18.75zm11.25 1.667h-1.667v1.667h1.667zm0-3.75h1.666v-1.667h-1.666zm-3.75 0h-1.667v1.667h1.667zm0-11.25v-1.667h-1.667v1.667zm3.75 0v1.667h1.666v-1.667zm0-3.75v-1.667h-1.667v1.667zm18.75 0h1.666v-1.667h-1.666zm0 3.75h-1.667v1.667h1.667zm3.75 0h1.666v-1.667h-1.666zm0 11.25v1.667h1.666v-1.667zm-3.75 0v-1.667h-1.667v1.667zm0 3.75v1.667h1.666v-1.667zm-15-3.75h-1.667v1.667h1.667zm11.25 0v1.667h1.666v-1.667zm0-11.25h1.666v-1.667h-1.666zm-11.25 0v-1.667h-1.667v1.667zm-2.084 15v-3.75h-3.333v3.75zm-1.666-5.417h-3.75v3.334h3.75zm-2.084 1.667v-11.25h-3.333v11.25zm-1.666-9.583h3.75v-3.334h-3.75zm5.416-1.667v-3.75h-3.333v3.75zm-1.666-2.083h18.75v-3.334h-18.75zm17.083-1.667v3.75h3.333v-3.75zm1.667 5.417h3.75v-3.334h-3.75zm2.083-1.667v11.25h3.333v-11.25zm1.667 9.583h-3.75v3.334h3.75zm-5.417 1.667v3.75h3.333v-3.75zm1.667 2.083h-18.75v3.334h18.75zm-15-.416h11.25v-3.334h-11.25zm12.916-1.667v-11.25h-3.333v11.25zm-1.666-12.917h-11.25v3.334h11.25zm-12.917 1.667v11.25h3.333v-11.25zm27.917 15h-1.667v1.667h1.667zm0-3.75h1.666v-1.667h-1.666zm-3.75 0h-1.667v1.667h1.667zm0-15v-1.667h-1.667v1.667zm7.5 0h1.666v-1.667h-1.666zm0 15h-1.667v1.667h1.667zm11.25 0v1.667h1.666v-1.667zm0-15v-1.667h-1.667v1.667zm7.5 0h1.666v-1.667h-1.666zm0 18.75v1.667h1.666v-1.667zm-20.834 0v-3.75h-3.333v3.75zm-1.666-5.417h-3.75v3.334h3.75zm-2.084 1.667v-15h-3.333v15zm-1.666-13.333h7.5v-3.334h-7.5zm5.833-1.667v15h3.333v-15zm1.667 16.667h11.25v-3.334h-11.25zm12.916-1.667v-15h-3.333v15zm-1.666-13.333h7.5v-3.334h-7.5zm5.833-1.667v18.75h3.333v-18.75zm1.667 17.083h-22.5v3.334h22.5zm7.5 1.667h-1.667v1.667h1.667zm0-3.75v-1.667h-1.667v1.667zm7.499 0v1.667h1.667v-1.667zm0-18.75h1.667v-1.667h-1.667zm-3.75 0h-1.666v1.667h1.666zm0-3.75v-1.667h-1.666v1.667zm11.25 0h1.667v-1.667h-1.667zm0 22.5h-1.666v1.667h1.666zm7.5 0h1.667v-1.667h-1.667zm0 3.75v1.667h1.667v-1.667zm-20.833 0v-3.75h-3.333v3.75zm-1.666-2.083h7.499v-3.334h-7.499zm9.166-1.667v-18.75h-3.333v18.75zm-1.667-20.417h-3.75v3.334h3.75zm-2.083 1.667v-3.75h-3.333v3.75zm-1.667-2.083h11.25v-3.334h-11.25zm9.584-1.667v22.5h3.333v-22.5zm1.666 24.167h7.5v-3.334h-7.5zm5.834-1.667v3.75h3.333v-3.75zm1.666 2.083h-22.499v3.334h22.499zm3.751 1.667h-1.667v1.667h1.667zm0-3.75v-1.667h-1.667v1.667zm18.749 0v1.667h1.667v-1.667zm0-3.75h1.667v-1.667h-1.667zm-14.999 0h-1.667v1.667h1.667zm0-3.75h1.666v-1.667h-1.666zm-3.75 0h-1.667v1.667h1.667zm0-3.75v-1.667h-1.667v1.667zm3.75 0v1.667h1.666v-1.667zm0-3.75v-1.667h-1.667v1.667zm18.749 0h1.667v-1.667h-1.667zm0 3.75v1.667h1.667v-1.667zm-15 0v-1.667h-1.666v1.667zm0 3.75h-1.666v1.667h1.666zm15 0h1.667v-1.667h-1.667zm0 3.75h-1.666v1.667h1.666zm3.75 0h1.667v-1.667h-1.667zm0 3.75v1.667h1.667v-1.667zm-3.75 0v-1.667h-1.666v1.667zm0 3.75v1.667h1.667v-1.667zm-20.833 0v-3.75h-3.333v3.75zm-1.666-2.083h18.749v-3.334h-18.749zm20.416-1.667v-3.75h-3.333v3.75zm-1.667-5.417h-14.999v3.334h14.999zm-13.333 1.667v-3.75h-3.333v3.75zm-1.666-5.417h-3.75v3.334h3.75zm-2.084 1.667v-3.75h-3.333v3.75zm-1.666-2.083h3.75v-3.334h-3.75zm5.416-1.667v-3.75h-3.333v3.75zm-1.666-2.083h18.749v-3.334h-18.749zm17.083-1.667v3.75h3.333v-3.75zm1.666 2.083h-15v3.334h15zm-16.666 1.667v3.75h3.333v-3.75zm1.666 5.417h15v-3.334h-15zm13.334-1.667v3.75h3.333v-3.75zm1.666 5.417h3.75v-3.334h-3.75zm2.084-1.667v3.75h3.333v-3.75zm1.666 2.083h-3.75v3.334h3.75zm-5.416 1.667v3.75h3.333v-3.75zm1.666 2.083h-22.499v3.334h22.499z" fill="#9d2701"/></g><path clip-rule="evenodd" d="m909.998 5.00012h-899.99801v-4.99999221h899.99801zm-118.333 160.00088h-663.332v-5h663.332zm-781.66501-55h103.33301v-5h-103.33301zm899.99801 0h-103.333v-5h103.333zm-904.99813-10h-4.99987v-89.9994h4.99987v-4.9994h4.99999v5h-4.99987v89.9988h4.99987v5h-4.99999zm108.33313 15h5v-5h-5zm693.332 0h-5v39.998h-5v-40h5v-4.998h5zm-683.332 45h5v-5h-5zm673.332 0h-5v-5h5zm-673.332-5.002h-5v-40h5zm791.665-54.998h5v-89.9994h-5v-4.9994h-5v5h5v89.9988h-5v5h5z" fill="#000" fill-rule="evenodd"/></svg>